<?xml version="1.0" encoding="UTF-8"?>
<!DOCTYPE svg PUBLIC "-//W3C//DTD SVG 1.1//EN" "http://www.w3.org/Graphics/SVG/1.1/DTD/svg11.dtd">
<svg xmlns="http://www.w3.org/2000/svg" version="1.1" width="512px" height="512px" style="shape-rendering:geometricPrecision; text-rendering:geometricPrecision; image-rendering:optimizeQuality; fill-rule:evenodd; clip-rule:evenodd" xmlns:xlink="http://www.w3.org/1999/xlink">
<g><path style="opacity:1" fill="#5fb8f6" d="M 328.5,140.5 C 324.833,140.5 321.167,140.5 317.5,140.5C 317.981,103.105 317.481,65.7719 316,28.5C 313.167,21.6667 308.333,16.8333 301.5,14C 286.385,12.8654 271.218,12.3654 256,12.5C 242.167,12.6667 228.333,12.8333 214.5,13C 203.561,15.6056 197.061,22.439 195,33.5C 194.5,69.1651 194.333,104.832 194.5,140.5C 190.833,140.5 187.167,140.5 183.5,140.5C 183.333,104.498 183.5,68.4985 184,32.5C 186.739,15.4286 196.572,5.26191 213.5,2C 227.667,1.83333 241.833,1.66667 256,1.5C 271.876,1.3726 287.709,1.8726 303.5,3C 316.949,7.44924 325.115,16.6159 328,30.5C 328.5,67.1652 328.667,103.832 328.5,140.5 Z M 317.5,140.5 C 276.5,140.5 235.5,140.5 194.5,140.5C 194.333,104.832 194.5,69.1651 195,33.5C 197.061,22.439 203.561,15.6056 214.5,13C 228.333,12.8333 242.167,12.6667 256,12.5C 271.218,12.3654 286.385,12.8654 301.5,14C 308.333,16.8333 313.167,21.6667 316,28.5C 317.481,65.7719 317.981,103.105 317.5,140.5 Z"/></g>
<g><path style="opacity:1" fill="#dfdf80" d="M 183.5,140.5 C 187.167,140.5 190.833,140.5 194.5,140.5C 235.5,140.5 276.5,140.5 317.5,140.5C 321.167,140.5 324.833,140.5 328.5,140.5C 343.17,140.333 357.837,140.5 372.5,141C 383.829,143.663 391.329,150.497 395,161.5C 396.147,190.628 396.647,219.795 396.5,249C 396.647,278.205 396.147,307.372 395,336.5C 391.43,347.069 384.263,353.903 373.5,357C 338.502,357.5 303.502,357.667 268.5,357.5C 265.5,357.5 262.5,357.5 259.5,357.5C 258.833,357.5 258.167,357.5 257.5,357.5C 255.5,357.5 253.5,357.5 251.5,357.5C 250.833,357.5 250.167,357.5 249.5,357.5C 246.5,357.5 243.5,357.5 240.5,357.5C 240.83,375.674 240.497,393.674 239.5,411.5C 239.5,393.5 239.5,375.5 239.5,357.5C 205.832,357.667 172.165,357.5 138.5,357C 127.333,353.833 120.167,346.667 117,335.5C 116.016,276.789 116.349,218.122 118,159.5C 121.918,151.248 128.084,145.415 136.5,142C 152.109,140.563 167.776,140.063 183.5,140.5 Z"/></g>
<g><path style="opacity:1" fill="#060603" d="M 318.5,181.5 C 320.924,181.192 323.257,181.526 325.5,182.5C 327.136,185.911 328.469,189.411 329.5,193C 346.163,193.5 362.83,193.667 379.5,193.5C 379.5,202.167 379.5,210.833 379.5,219.5C 376.167,219.5 372.833,219.5 369.5,219.5C 369.5,213.833 369.5,208.167 369.5,202.5C 338.833,202.5 308.167,202.5 277.5,202.5C 277.5,208.167 277.5,213.833 277.5,219.5C 274.167,219.5 270.833,219.5 267.5,219.5C 267.5,210.833 267.5,202.167 267.5,193.5C 284.5,193.5 301.5,193.5 318.5,193.5C 318.538,190.193 317.872,187.026 316.5,184C 317.056,182.989 317.722,182.156 318.5,181.5 Z"/></g>
<g><path style="opacity:1" fill="#070704" d="M 151.5,182.5 C 154.5,182.5 157.5,182.5 160.5,182.5C 160.5,190.5 160.5,198.5 160.5,206.5C 169.833,206.5 179.167,206.5 188.5,206.5C 188.626,233.65 186.793,260.65 183,287.5C 181.867,292.277 179.367,296.11 175.5,299C 169.243,300.317 162.909,300.817 156.5,300.5C 156.404,297.044 155.404,293.877 153.5,291C 158.833,290.667 164.167,290.333 169.5,290C 170.333,289.167 171.167,288.333 172,287.5C 172.844,283.789 173.844,280.123 175,276.5C 177.059,256.551 178.225,236.551 178.5,216.5C 172.5,216.5 166.5,216.5 160.5,216.5C 159.749,241.679 154.916,266.012 146,289.5C 143.664,294.175 140.831,298.508 137.5,302.5C 134.952,300.448 132.619,298.281 130.5,296C 140.823,279.366 146.99,261.199 149,241.5C 149.781,233.18 150.281,224.847 150.5,216.5C 144.5,216.5 138.5,216.5 132.5,216.5C 132.5,213.167 132.5,209.833 132.5,206.5C 138.833,206.5 145.167,206.5 151.5,206.5C 151.5,198.5 151.5,190.5 151.5,182.5 Z"/></g>
<g><path style="opacity:1" fill="#020201" d="M 244.5,300.5 C 241.167,300.5 237.833,300.5 234.5,300.5C 234.5,297.833 234.5,295.167 234.5,292.5C 226.016,291.507 217.349,291.174 208.5,291.5C 208.5,294.833 208.5,298.167 208.5,301.5C 205.5,301.5 202.5,301.5 199.5,301.5C 199.5,267.5 199.5,233.5 199.5,199.5C 214.5,199.5 229.5,199.5 244.5,199.5C 244.5,233.167 244.5,266.833 244.5,300.5 Z"/></g>
<g><path style="opacity:1" fill="#8c8c50" d="M 244.5,300.5 C 244.5,266.833 244.5,233.167 244.5,199.5C 229.5,199.5 214.5,199.5 199.5,199.5C 199.5,233.5 199.5,267.5 199.5,301.5C 198.502,267.337 198.168,233.004 198.5,198.5C 214.167,198.5 229.833,198.5 245.5,198.5C 245.832,232.671 245.498,266.671 244.5,300.5 Z"/></g>
<g><path style="opacity:1" fill="#090905" d="M 308.5,204.5 C 316.972,207.9 324.639,212.567 331.5,218.5C 330.139,220.028 328.972,221.695 328,223.5C 327.282,224.451 326.449,224.617 325.5,224C 318.811,218.66 311.811,213.827 304.5,209.5C 305.857,207.814 307.19,206.148 308.5,204.5 Z"/></g>
<g><path style="opacity:1" fill="#dcdc7d" d="M 208.5,208.5 C 217.167,208.5 225.833,208.5 234.5,208.5C 234.5,233.167 234.5,257.833 234.5,282.5C 225.833,282.5 217.167,282.5 208.5,282.5C 208.5,257.833 208.5,233.167 208.5,208.5 Z"/></g>
<g><path style="opacity:1" fill="#070704" d="M 297.5,218.5 C 300.167,218.5 302.833,218.5 305.5,218.5C 305.175,225.687 305.509,232.687 306.5,239.5C 322.412,232.266 336.412,222.266 348.5,209.5C 350.811,210.214 352.978,211.214 355,212.5C 354.956,214.279 354.289,215.945 353,217.5C 340.835,229.663 327.001,239.497 311.5,247C 323.167,247.667 334.833,247.667 346.5,247C 349.586,243.076 351.086,238.576 351,233.5C 353.022,234.786 355.189,235.786 357.5,236.5C 358.718,243.125 357.051,248.959 352.5,254C 336.567,255.621 320.567,255.954 304.5,255C 302.579,254.64 300.912,253.806 299.5,252.5C 289.383,256.761 279.05,260.428 268.5,263.5C 266.62,260.909 264.62,258.409 262.5,256C 274.143,252.063 285.81,248.23 297.5,244.5C 297.5,235.833 297.5,227.167 297.5,218.5 Z"/></g>
<g><path style="opacity:1" fill="#606037" d="M 297.5,218.5 C 300.287,217.523 303.287,217.19 306.5,217.5C 306.5,224.833 306.5,232.167 306.5,239.5C 305.509,232.687 305.175,225.687 305.5,218.5C 302.833,218.5 300.167,218.5 297.5,218.5 Z"/></g>
<g><path style="opacity:1" fill="#0c0b06" d="M 280.5,220.5 C 283.968,220.73 286.635,222.23 288.5,225C 284.173,233.827 278.507,241.66 271.5,248.5C 268.865,247.189 266.531,245.522 264.5,243.5C 271.443,236.901 276.776,229.234 280.5,220.5 Z"/></g>
<g><path style="opacity:1" fill="#090905" d="M 359.5,221.5 C 360.552,221.351 361.552,221.517 362.5,222C 370.238,229.068 377.238,236.734 383.5,245C 381,246.833 378.5,248.667 376,250.5C 369.769,241.43 362.602,233.097 354.5,225.5C 356.21,224.113 357.877,222.779 359.5,221.5 Z"/></g>
<g><path style="opacity:1" fill="#010100" d="M 327.5,260.5 C 327.5,269.833 327.5,279.167 327.5,288.5C 338.167,288.5 348.833,288.5 359.5,288.5C 359.5,281.167 359.5,273.833 359.5,266.5C 362.5,266.5 365.5,266.5 368.5,266.5C 368.5,278.833 368.5,291.167 368.5,303.5C 365.5,303.5 362.5,303.5 359.5,303.5C 359.5,301.5 359.5,299.5 359.5,297.5C 332.5,297.5 305.5,297.5 278.5,297.5C 278.5,287.5 278.5,277.5 278.5,267.5C 281.833,267.5 285.167,267.5 288.5,267.5C 288.5,274.5 288.5,281.5 288.5,288.5C 298.5,288.5 308.5,288.5 318.5,288.5C 318.5,279.167 318.5,269.833 318.5,260.5C 321.5,260.5 324.5,260.5 327.5,260.5 Z"/></g>
<g><path style="opacity:1" fill="#a6a65f" d="M 327.5,260.5 C 328.493,269.318 328.827,278.318 328.5,287.5C 338.5,287.5 348.5,287.5 358.5,287.5C 358.175,280.313 358.509,273.313 359.5,266.5C 359.5,273.833 359.5,281.167 359.5,288.5C 348.833,288.5 338.167,288.5 327.5,288.5C 327.5,279.167 327.5,269.833 327.5,260.5 Z"/></g>
<g><path style="opacity:1" fill="#636339" d="M 234.5,292.5 C 226.167,292.5 217.833,292.5 209.5,292.5C 209.81,295.713 209.477,298.713 208.5,301.5C 208.5,298.167 208.5,294.833 208.5,291.5C 217.349,291.174 226.016,291.507 234.5,292.5 Z"/></g>
<g><path style="opacity:1" fill="#9c9c59" d="M 278.5,297.5 C 305.5,297.5 332.5,297.5 359.5,297.5C 359.5,299.5 359.5,301.5 359.5,303.5C 358.549,302.081 358.216,300.415 358.5,298.5C 331.661,298.831 304.995,298.498 278.5,297.5 Z"/></g>
<g><path style="opacity:1" fill="#3c11ff" d="M 249.5,357.5 C 250.167,428.167 250.833,428.167 251.5,357.5C 253.5,357.5 255.5,357.5 257.5,357.5C 258.167,428.167 258.833,428.167 259.5,357.5C 262.5,357.5 265.5,357.5 268.5,357.5C 268.5,360.167 268.5,362.833 268.5,365.5C 276.507,365.334 284.507,365.5 292.5,366C 295.07,368.615 295.07,371.282 292.5,374C 284.507,374.5 276.507,374.666 268.5,374.5C 268.5,378.5 268.5,382.5 268.5,386.5C 276.84,386.334 285.173,386.5 293.5,387C 295.524,390.984 294.524,393.65 290.5,395C 283.174,395.5 275.841,395.666 268.5,395.5C 268.5,400.5 268.5,405.5 268.5,410.5C 283.414,414.24 293.914,423.24 300,437.5C 307.617,460.547 302.117,479.713 283.5,495C 264.598,506.468 245.931,506.135 227.5,494C 209.251,477.837 204.418,458.337 213,435.5C 215.257,430.423 218.424,426.09 222.5,422.5C 224.749,421.92 226.415,420.587 227.5,418.5C 230.835,415.161 234.835,412.828 239.5,411.5C 240.497,393.674 240.83,375.674 240.5,357.5C 243.5,357.5 246.5,357.5 249.5,357.5 Z M 254.5,444.5 C 265.547,446.273 269.047,452.273 265,462.5C 257.498,468.572 251.165,467.572 246,459.5C 244.204,451.749 247.037,446.749 254.5,444.5 Z"/></g>
<g><path style="opacity:1" fill="#dbd9e4" d="M 249.5,357.5 C 250.167,357.5 250.833,357.5 251.5,357.5C 250.833,428.167 250.167,428.167 249.5,357.5 Z"/></g>
<g><path style="opacity:1" fill="#dbd9e4" d="M 257.5,357.5 C 258.167,357.5 258.833,357.5 259.5,357.5C 258.833,428.167 258.167,428.167 257.5,357.5 Z"/></g>
<g><path style="opacity:1" fill="#a27eff" d="M 227.5,418.5 C 226.415,420.587 224.749,421.92 222.5,422.5C 223.585,420.413 225.251,419.08 227.5,418.5 Z"/></g>
</svg>
