<?xml version="1.0" standalone="no"?><?xml-stylesheet type="text/css" href="https://www.processon.com/themes/default/mind/icons/icons.css" ?><!DOCTYPE svg PUBLIC "-//W3C//DTD SVG 1.1//EN" "http://www.w3.org/Graphics/SVG/1.1/DTD/svg11.dtd"><svg id="SvgjsSvg1635" xmlns="http://www.w3.org/2000/svg" version="1.1" xmlns:xlink="http://www.w3.org/1999/xlink" xmlns:svgjs="http://svgjs.com/svgjs" width="1079" height="728"><rect fill="url(#pattern_mark)" transform="translate(-120,16)" width="1247" height="726" id="rect_mark" pointer-events="none"></rect><defs id="SvgjsDefs1636"><marker id="SvgjsMarker1651" markerWidth="14" markerHeight="10" refX="10" refY="5" viewBox="0 0 14 10" orient="auto" markerUnits="userSpaceOnUse" stroke-dasharray="0,0"><path id="SvgjsPath1652" d="M0 0L14 5L0 10L0 0 " fill="#fcfdfe" stroke="#fcfdfe" stroke-width="1"></path></marker><marker id="SvgjsMarker1655" markerWidth="14" markerHeight="10" refX="10" refY="5" viewBox="0 0 14 10" orient="auto" markerUnits="userSpaceOnUse" stroke-dasharray="0,0"><path id="SvgjsPath1656" d="M0 0L14 5L0 10L0 0 " fill="#fcfdfe" stroke="#fcfdfe" stroke-width="1"></path></marker><marker id="SvgjsMarker1669" markerWidth="14" markerHeight="10" refX="10" refY="5" viewBox="0 0 14 10" orient="auto" markerUnits="userSpaceOnUse" stroke-dasharray="0,0"><path id="SvgjsPath1670" d="M0 0L14 5L0 10L0 0 " fill="#fcfdfe" stroke="#fcfdfe" stroke-width="1"></path></marker><marker id="SvgjsMarker1683" markerWidth="14" markerHeight="10" refX="10" refY="5" viewBox="0 0 14 10" orient="auto" markerUnits="userSpaceOnUse" stroke-dasharray="0,0"><path id="SvgjsPath1684" d="M0 0L14 5L0 10L0 0 " fill="#fcfdfe" stroke="#fcfdfe" stroke-width="1"></path></marker><marker id="SvgjsMarker1699" markerWidth="14" markerHeight="10" refX="10" refY="5" viewBox="0 0 14 10" orient="auto" markerUnits="userSpaceOnUse" stroke-dasharray="0,0"><path id="SvgjsPath1700" d="M0 0L14 5L0 10L0 0 " fill="#fcfdfe" stroke="#fcfdfe" stroke-width="1"></path></marker><marker id="SvgjsMarker1703" markerWidth="14" markerHeight="10" refX="10" refY="5" viewBox="0 0 14 10" orient="auto" markerUnits="userSpaceOnUse" stroke-dasharray="0,0"><path id="SvgjsPath1704" d="M0 0L14 5L0 10L0 0 " fill="#fcfdfe" stroke="#fcfdfe" stroke-width="1"></path></marker><marker id="SvgjsMarker1723" markerWidth="14" markerHeight="10" refX="10" refY="5" viewBox="0 0 14 10" orient="auto" markerUnits="userSpaceOnUse" stroke-dasharray="0,0"><path id="SvgjsPath1724" d="M0 0L14 5L0 10L0 0 " fill="#fcfdfe" stroke="#fcfdfe" stroke-width="1"></path></marker><marker id="SvgjsMarker1727" markerWidth="14" markerHeight="10" refX="10" refY="5" viewBox="0 0 14 10" orient="auto" markerUnits="userSpaceOnUse" stroke-dasharray="0,0"><path id="SvgjsPath1728" d="M0 0L14 5L0 10L0 0 " fill="#fcfdfe" stroke="#fcfdfe" stroke-width="1"></path></marker><marker id="SvgjsMarker1741" markerWidth="14" markerHeight="10" refX="10" refY="5" viewBox="0 0 14 10" orient="auto" markerUnits="userSpaceOnUse" stroke-dasharray="0,0"><path id="SvgjsPath1742" d="M0 0L14 5L0 10L0 0 " fill="#fcfdfe" stroke="#fcfdfe" stroke-width="1"></path></marker><marker id="SvgjsMarker1757" markerWidth="14" markerHeight="10" refX="10" refY="5" viewBox="0 0 14 10" orient="auto" markerUnits="userSpaceOnUse" stroke-dasharray="0,0"><path id="SvgjsPath1758" d="M0 0L14 5L0 10L0 0 " fill="#fcfdfe" stroke="#fcfdfe" stroke-width="1"></path></marker><marker id="SvgjsMarker1761" markerWidth="14" markerHeight="10" refX="10" refY="5" viewBox="0 0 14 10" orient="auto" markerUnits="userSpaceOnUse" stroke-dasharray="0,0"><path id="SvgjsPath1762" d="M0 0L14 5L0 10L0 0 " fill="#fcfdfe" stroke="#fcfdfe" stroke-width="1"></path></marker><marker id="SvgjsMarker1781" markerWidth="14" markerHeight="10" refX="10" refY="5" viewBox="0 0 14 10" orient="auto" markerUnits="userSpaceOnUse" stroke-dasharray="0,0"><path id="SvgjsPath1782" d="M0 0L14 5L0 10L0 0 " fill="#fcfdfe" stroke="#fcfdfe" stroke-width="1"></path></marker><marker id="SvgjsMarker1785" markerWidth="14" markerHeight="10" refX="10" refY="5" viewBox="0 0 14 10" orient="auto" markerUnits="userSpaceOnUse" stroke-dasharray="0,0"><path id="SvgjsPath1786" d="M0 0L14 5L0 10L0 0 " fill="#fcfdfe" stroke="#fcfdfe" stroke-width="1"></path></marker><marker id="SvgjsMarker1811" markerWidth="14" markerHeight="10" refX="10" refY="5" viewBox="0 0 14 10" orient="auto" markerUnits="userSpaceOnUse" stroke-dasharray="0,0"><path id="SvgjsPath1812" d="M0 0L14 5L0 10L0 0 " fill="#fcfdfe" stroke="#fcfdfe" stroke-width="1"></path></marker><marker id="SvgjsMarker1819" markerWidth="14" markerHeight="10" refX="10" refY="5" viewBox="0 0 14 10" orient="auto" markerUnits="userSpaceOnUse" stroke-dasharray="0,0"><path id="SvgjsPath1820" d="M0 0L14 5L0 10L0 0 " fill="#fcfdfe" stroke="#fcfdfe" stroke-width="1"></path></marker><marker id="SvgjsMarker1823" markerWidth="14" markerHeight="10" refX="10" refY="5" viewBox="0 0 14 10" orient="auto" markerUnits="userSpaceOnUse" stroke-dasharray="0,0"><path id="SvgjsPath1824" d="M0 0L14 5L0 10L0 0 " fill="#fcfdfe" stroke="#fcfdfe" stroke-width="1"></path></marker><marker id="SvgjsMarker1831" markerWidth="14" markerHeight="10" refX="10" refY="5" viewBox="0 0 14 10" orient="auto" markerUnits="userSpaceOnUse" stroke-dasharray="0,0"><path id="SvgjsPath1832" d="M0 0L14 5L0 10L0 0 " fill="#fcfdfe" stroke="#fcfdfe" stroke-width="1"></path></marker><pattern patternUnits="userSpaceOnUse" id="pattern_mark" width="300" height="300"><text x="-50" y="150" fill="rgba(229,229,229,0.8)" font-size="18" transform="rotate(-45, 150, 150)"></text></pattern></defs><g id="svgbackgroundid"><defs></defs><rect x="0" y="0" width="1079" height="728" fill="#001030"></rect></g><g id="downloadwatermarkid"><defs><pattern patternUnits="userSpaceOnUse" id="pattern_mark_download" width="200" height="200"><text x="20" y="80" fill="rgb(0,30,127,0.8)" font-size="14" transform="rotate(-45, 150, 150)">黑客000的Python简易教程</text></pattern></defs><rect fill="url(#pattern_mark_download)" x="0" y="0" width="1079" height="728" id="rect_mark_download" pointer-events="none"></rect></g><g id="SvgjsG1637" transform="translate(35,25)"><path id="SvgjsPath1638" d="M0 0L100 0L100 70L0 70Z " stroke="rgba(50,50,50,1)" stroke-width="2" fill-opacity="1" fill="#001030"></path><g id="SvgjsG1639"><text id="SvgjsText1640" font-family="微软雅黑" text-anchor="middle" font-size="20px" width="80px" fill="#fcfdfe" font-weight="400" align="middle" lineheight="125%" font-style="" opacity="1" y="17" transform="rotate(0)"><tspan id="SvgjsTspan1641" dy="25" x="50"><tspan id="SvgjsTspan1642" style="text-decoration:;">前置代码</tspan></tspan></text></g></g><g id="SvgjsG1643" transform="translate(35,145)"><path id="SvgjsPath1644" d="M0 35L45 0L90 35L45 70L0 35Z " stroke="rgba(50,50,50,1)" stroke-width="2" fill-opacity="1" fill="#001030"></path><g id="SvgjsG1645"><text id="SvgjsText1646" font-family="微软雅黑" text-anchor="middle" font-size="20px" width="70px" fill="#fcfdfe" font-weight="400" align="middle" lineheight="125%" font-style="" opacity="1" y="17" transform="rotate(0)"><tspan id="SvgjsTspan1647" dy="25" x="45"><tspan id="SvgjsTspan1648" style="text-decoration:;">条件</tspan></tspan></text></g></g><g id="SvgjsG1649"><path id="SvgjsPath1650" d="M85 96L85 120L80 120L80 141.4 " stroke="#fcfdfe" stroke-width="2" fill="none" marker-end="url(#SvgjsMarker1651)"></path></g><g id="SvgjsG1653"><path id="SvgjsPath1654" d="M80 216L80 268.5L85 268.5L85 318.4 " stroke="#fcfdfe" stroke-width="2" fill="none" marker-end="url(#SvgjsMarker1655)"></path><rect id="SvgjsRect1657" width="20" height="25" x="71.19999999999999" y="256" fill="#001030"></rect><text id="SvgjsText1658" font-family="微软雅黑" text-anchor="middle" font-size="20px" width="20px" fill="#fcfdfe" font-weight="400" align="top" lineheight="25px" font-style="" opacity="1" y="250.5" transform="rotate(0)"><tspan id="SvgjsTspan1659" dy="25" x="81.19999999999999"><tspan id="SvgjsTspan1660" style="text-decoration:;">真</tspan></tspan></text></g><g id="SvgjsG1661" transform="translate(35,322)"><path id="SvgjsPath1662" d="M0 0L100 0L100 70L0 70Z " stroke="rgba(50,50,50,1)" stroke-width="2" fill-opacity="1" fill="#001030"></path><g id="SvgjsG1663"><text id="SvgjsText1664" font-family="微软雅黑" text-anchor="middle" font-size="20px" width="80px" fill="#fcfdfe" font-weight="400" align="middle" lineheight="125%" font-style="" opacity="1" y="17" transform="rotate(0)"><tspan id="SvgjsTspan1665" dy="25" x="50"><tspan id="SvgjsTspan1666" style="text-decoration:;">代码块1</tspan></tspan></text></g></g><g id="SvgjsG1667"><path id="SvgjsPath1668" d="M126 180L155 180L155 550L85 550L85 576.4 " stroke="#fcfdfe" stroke-width="2" fill="none" marker-end="url(#SvgjsMarker1669)"></path><rect id="SvgjsRect1671" width="20" height="25" x="145" y="386.2" fill="#001030"></rect><text id="SvgjsText1672" font-family="微软雅黑" text-anchor="middle" font-size="20px" width="20px" fill="#fcfdfe" font-weight="400" align="top" lineheight="25px" font-style="" opacity="1" y="380.7" transform="rotate(0)"><tspan id="SvgjsTspan1673" dy="25" x="155"><tspan id="SvgjsTspan1674" style="text-decoration:;">假</tspan></tspan></text></g><g id="SvgjsG1675" transform="translate(35,580)"><path id="SvgjsPath1676" d="M0 0L100 0L100 70L0 70Z " stroke="rgba(50,50,50,1)" stroke-width="2" fill-opacity="1" fill="#001030"></path><g id="SvgjsG1677"><text id="SvgjsText1678" font-family="微软雅黑" text-anchor="middle" font-size="20px" width="80px" fill="#fcfdfe" font-weight="400" align="middle" lineheight="125%" font-style="" opacity="1" y="17" transform="rotate(0)"><tspan id="SvgjsTspan1679" dy="25" x="50"><tspan id="SvgjsTspan1680" style="text-decoration:;">后置代码</tspan></tspan></text></g></g><g id="SvgjsG1681"><path id="SvgjsPath1682" d="M85 393L85 486L85 486L85 576.4 " stroke="#fcfdfe" stroke-width="2" fill="none" marker-end="url(#SvgjsMarker1683)"></path></g><g id="SvgjsG1685" transform="translate(334,25)"><path id="SvgjsPath1686" d="M0 0L100 0L100 70L0 70Z " stroke="rgba(50,50,50,1)" stroke-width="2" fill-opacity="1" fill="#001030"></path><g id="SvgjsG1687"><text id="SvgjsText1688" font-family="微软雅黑" text-anchor="middle" font-size="20px" width="80px" fill="#fcfdfe" font-weight="400" align="middle" lineheight="125%" font-style="" opacity="1" y="17" transform="rotate(0)"><tspan id="SvgjsTspan1689" dy="25" x="50"><tspan id="SvgjsTspan1690" style="text-decoration:;">前置代码</tspan></tspan></text></g></g><g id="SvgjsG1691" transform="translate(339,145)"><path id="SvgjsPath1692" d="M0 35L45 0L90 35L45 70L0 35Z " stroke="rgba(50,50,50,1)" stroke-width="2" fill-opacity="1" fill="#001030"></path><g id="SvgjsG1693"><text id="SvgjsText1694" font-family="微软雅黑" text-anchor="middle" font-size="20px" width="70px" fill="#fcfdfe" font-weight="400" align="middle" lineheight="125%" font-style="" opacity="1" y="17" transform="rotate(0)"><tspan id="SvgjsTspan1695" dy="25" x="45"><tspan id="SvgjsTspan1696" style="text-decoration:;">条件</tspan></tspan></text></g></g><g id="SvgjsG1697"><path id="SvgjsPath1698" d="M384 96L384 120L384 120L384 141.4 " stroke="#fcfdfe" stroke-width="2" fill="none" marker-end="url(#SvgjsMarker1699)"></path></g><g id="SvgjsG1701"><path id="SvgjsPath1702" d="M384 216L384 266L384 266L384 313.4 " stroke="#fcfdfe" stroke-width="2" fill="none" marker-end="url(#SvgjsMarker1703)"></path><rect id="SvgjsRect1705" width="20" height="25" x="374" y="252.2" fill="#001030"></rect><text id="SvgjsText1706" font-family="微软雅黑" text-anchor="middle" font-size="20px" width="20px" fill="#fcfdfe" font-weight="400" align="top" lineheight="25px" font-style="" opacity="1" y="246.7" transform="rotate(0)"><tspan id="SvgjsTspan1707" dy="25" x="384"><tspan id="SvgjsTspan1708" style="text-decoration:;">真</tspan></tspan></text></g><g id="SvgjsG1709" transform="translate(334,317)"><path id="SvgjsPath1710" d="M0 0L100 0L100 70L0 70Z " stroke="rgba(50,50,50,1)" stroke-width="2" fill-opacity="1" fill="#001030"></path><g id="SvgjsG1711"><text id="SvgjsText1712" font-family="微软雅黑" text-anchor="middle" font-size="20px" width="80px" fill="#fcfdfe" font-weight="400" align="middle" lineheight="125%" font-style="" opacity="1" y="17" transform="rotate(0)"><tspan id="SvgjsTspan1713" dy="25" x="50"><tspan id="SvgjsTspan1714" style="text-decoration:;">代码块1</tspan></tspan></text></g></g><g id="SvgjsG1715" transform="translate(334,580)"><path id="SvgjsPath1716" d="M0 0L100 0L100 70L0 70Z " stroke="rgba(50,50,50,1)" stroke-width="2" fill-opacity="1" fill="#001030"></path><g id="SvgjsG1717"><text id="SvgjsText1718" font-family="微软雅黑" text-anchor="middle" font-size="20px" width="80px" fill="#fcfdfe" font-weight="400" align="middle" lineheight="125%" font-style="" opacity="1" y="17" transform="rotate(0)"><tspan id="SvgjsTspan1719" dy="25" x="50"><tspan id="SvgjsTspan1720" style="text-decoration:;">后置代码</tspan></tspan></text></g></g><g id="SvgjsG1721"><path id="SvgjsPath1722" d="M384 388L384 483.5L384 483.5L384 576.4 " stroke="#fcfdfe" stroke-width="2" fill="none" marker-end="url(#SvgjsMarker1723)"></path></g><g id="SvgjsG1725"><path id="SvgjsPath1726" d="M430 180L517 180L517 313.4 " stroke="#fcfdfe" stroke-width="2" fill="none" marker-end="url(#SvgjsMarker1727)"></path><rect id="SvgjsRect1729" width="20" height="25" x="507" y="190.7" fill="#001030"></rect><text id="SvgjsText1730" font-family="微软雅黑" text-anchor="middle" font-size="20px" width="20px" fill="#fcfdfe" font-weight="400" align="top" lineheight="25px" font-style="" opacity="1" y="185.2" transform="rotate(0)"><tspan id="SvgjsTspan1731" dy="25" x="517"><tspan id="SvgjsTspan1732" style="text-decoration:;">假</tspan></tspan></text></g><g id="SvgjsG1733" transform="translate(467,317)"><path id="SvgjsPath1734" d="M0 0L100 0L100 70L0 70Z " stroke="rgba(50,50,50,1)" stroke-width="2" fill-opacity="1" fill="#001030"></path><g id="SvgjsG1735"><text id="SvgjsText1736" font-family="微软雅黑" text-anchor="middle" font-size="20px" width="80px" fill="#fcfdfe" font-weight="400" align="middle" lineheight="125%" font-style="" opacity="1" y="17" transform="rotate(0)"><tspan id="SvgjsTspan1737" dy="25" x="50"><tspan id="SvgjsTspan1738" style="text-decoration:;">代码块2</tspan></tspan></text></g></g><g id="SvgjsG1739"><path id="SvgjsPath1740" d="M517 388L517 483.5L384 483.5L384 576.4 " stroke="#fcfdfe" stroke-width="2" fill="none" marker-end="url(#SvgjsMarker1741)"></path></g><g id="SvgjsG1743" transform="translate(670,25)"><path id="SvgjsPath1744" d="M0 0L100 0L100 70L0 70Z " stroke="rgba(50,50,50,1)" stroke-width="2" fill-opacity="1" fill="#001030"></path><g id="SvgjsG1745"><text id="SvgjsText1746" font-family="微软雅黑" text-anchor="middle" font-size="20px" width="80px" fill="#fcfdfe" font-weight="400" align="middle" lineheight="125%" font-style="" opacity="1" y="17" transform="rotate(0)"><tspan id="SvgjsTspan1747" dy="25" x="50"><tspan id="SvgjsTspan1748" style="text-decoration:;">前置代码</tspan></tspan></text></g></g><g id="SvgjsG1749" transform="translate(675,145)"><path id="SvgjsPath1750" d="M0 35L45 0L90 35L45 70L0 35Z " stroke="rgba(50,50,50,1)" stroke-width="2" fill-opacity="1" fill="#001030"></path><g id="SvgjsG1751"><text id="SvgjsText1752" font-family="微软雅黑" text-anchor="middle" font-size="20px" width="70px" fill="#fcfdfe" font-weight="400" align="middle" lineheight="125%" font-style="" opacity="1" y="17" transform="rotate(0)"><tspan id="SvgjsTspan1753" dy="25" x="45"><tspan id="SvgjsTspan1754" style="text-decoration:;">条件1</tspan></tspan></text></g></g><g id="SvgjsG1755"><path id="SvgjsPath1756" d="M720 96L720 120L720 120L720 141.4 " stroke="#fcfdfe" stroke-width="2" fill="none" marker-end="url(#SvgjsMarker1757)"></path></g><g id="SvgjsG1759"><path id="SvgjsPath1760" d="M720 216L720 266L720 266L720 313.4 " stroke="#fcfdfe" stroke-width="2" fill="none" marker-end="url(#SvgjsMarker1761)"></path><rect id="SvgjsRect1763" width="20" height="25" x="710" y="252.2" fill="#001030"></rect><text id="SvgjsText1764" font-family="微软雅黑" text-anchor="middle" font-size="20px" width="20px" fill="#fcfdfe" font-weight="400" align="top" lineheight="25px" font-style="" opacity="1" y="246.7" transform="rotate(0)"><tspan id="SvgjsTspan1765" dy="25" x="720"><tspan id="SvgjsTspan1766" style="text-decoration:;">真</tspan></tspan></text></g><g id="SvgjsG1767" transform="translate(670,317)"><path id="SvgjsPath1768" d="M0 0L100 0L100 70L0 70Z " stroke="rgba(50,50,50,1)" stroke-width="2" fill-opacity="1" fill="#001030"></path><g id="SvgjsG1769"><text id="SvgjsText1770" font-family="微软雅黑" text-anchor="middle" font-size="20px" width="80px" fill="#fcfdfe" font-weight="400" align="middle" lineheight="125%" font-style="" opacity="1" y="17" transform="rotate(0)"><tspan id="SvgjsTspan1771" dy="25" x="50"><tspan id="SvgjsTspan1772" style="text-decoration:;">代码块1</tspan></tspan></text></g></g><g id="SvgjsG1773" transform="translate(670,580)"><path id="SvgjsPath1774" d="M0 0L100 0L100 70L0 70Z " stroke="rgba(50,50,50,1)" stroke-width="2" fill-opacity="1" fill="#001030"></path><g id="SvgjsG1775"><text id="SvgjsText1776" font-family="微软雅黑" text-anchor="middle" font-size="20px" width="80px" fill="#fcfdfe" font-weight="400" align="middle" lineheight="125%" font-style="" opacity="1" y="17" transform="rotate(0)"><tspan id="SvgjsTspan1777" dy="25" x="50"><tspan id="SvgjsTspan1778" style="text-decoration:;">后置代码</tspan></tspan></text></g></g><g id="SvgjsG1779"><path id="SvgjsPath1780" d="M720 388L720 483.5L720 483.5L720 576.4 " stroke="#fcfdfe" stroke-width="2" fill="none" marker-end="url(#SvgjsMarker1781)"></path></g><g id="SvgjsG1783"><path id="SvgjsPath1784" d="M766 180L851 180L851 279 " stroke="#fcfdfe" stroke-width="2" fill="none" marker-end="url(#SvgjsMarker1785)"></path><rect id="SvgjsRect1787" width="20" height="25" x="841" y="174.5" fill="#001030"></rect><text id="SvgjsText1788" font-family="微软雅黑" text-anchor="middle" font-size="20px" width="20px" fill="#fcfdfe" font-weight="400" align="top" lineheight="25px" font-style="" opacity="1" y="169" transform="rotate(0)"><tspan id="SvgjsTspan1789" dy="25" x="851"><tspan id="SvgjsTspan1790" style="text-decoration:;">假</tspan></tspan></text></g><g id="SvgjsG1791" transform="translate(804,274)"><path id="SvgjsPath1792" d="M0 35L45 0L90 35L45 70L0 35Z " stroke="rgba(50,50,50,1)" stroke-width="2" fill-opacity="1" fill="#001030"></path><g id="SvgjsG1793"><text id="SvgjsText1794" font-family="微软雅黑" text-anchor="middle" font-size="20px" width="70px" fill="#fcfdfe" font-weight="400" align="middle" lineheight="125%" font-style="" opacity="1" y="17" transform="rotate(0)"><tspan id="SvgjsTspan1795" dy="25" x="45"><tspan id="SvgjsTspan1796" style="text-decoration:;">条件2</tspan></tspan></text></g></g><g id="SvgjsG1797" transform="translate(799,402)"><path id="SvgjsPath1798" d="M0 0L100 0L100 70L0 70Z " stroke="rgba(50,50,50,1)" stroke-width="2" fill-opacity="1" fill="#001030"></path><g id="SvgjsG1799"><text id="SvgjsText1800" font-family="微软雅黑" text-anchor="middle" font-size="20px" width="80px" fill="#fcfdfe" font-weight="400" align="middle" lineheight="125%" font-style="" opacity="1" y="17" transform="rotate(0)"><tspan id="SvgjsTspan1801" dy="25" x="50"><tspan id="SvgjsTspan1802" style="text-decoration:;">代码块2</tspan></tspan></text></g></g><g id="SvgjsG1803" transform="translate(954,454)"><path id="SvgjsPath1804" d="M0 0L100 0L100 70L0 70Z " stroke="rgba(50,50,50,1)" stroke-width="2" fill-opacity="1" fill="#001030"></path><g id="SvgjsG1805"><text id="SvgjsText1806" font-family="微软雅黑" text-anchor="middle" font-size="20px" width="80px" fill="#fcfdfe" font-weight="400" align="middle" lineheight="125%" font-style="" opacity="1" y="17" transform="rotate(0)"><tspan id="SvgjsTspan1807" dy="25" x="50"><tspan id="SvgjsTspan1808" style="text-decoration:;">代码块3</tspan></tspan></text></g></g><g id="SvgjsG1809"><path id="SvgjsPath1810" d="M849 345L849 373L849 373L849 398.4 " stroke="#fcfdfe" stroke-width="2" fill="none" marker-end="url(#SvgjsMarker1811)"></path><rect id="SvgjsRect1813" width="20" height="25" x="839" y="359.2" fill="#001030"></rect><text id="SvgjsText1814" font-family="微软雅黑" text-anchor="middle" font-size="20px" width="20px" fill="#fcfdfe" font-weight="400" align="top" lineheight="25px" font-style="" opacity="1" y="353.7" transform="rotate(0)"><tspan id="SvgjsTspan1815" dy="25" x="849"><tspan id="SvgjsTspan1816" style="text-decoration:;">真</tspan></tspan></text></g><g id="SvgjsG1817"><path id="SvgjsPath1818" d="M849 473L849 526L720 526L720 576.4 " stroke="#fcfdfe" stroke-width="2" fill="none" marker-end="url(#SvgjsMarker1819)"></path></g><g id="SvgjsG1821"><path id="SvgjsPath1822" d="M895 309L924 309L924 489L950.4000000000001 489 " stroke="#fcfdfe" stroke-width="2" fill="none" marker-end="url(#SvgjsMarker1823)"></path><rect id="SvgjsRect1825" width="20" height="25" x="914" y="385.20000000000005" fill="#001030"></rect><text id="SvgjsText1826" font-family="微软雅黑" text-anchor="middle" font-size="20px" width="20px" fill="#fcfdfe" font-weight="400" align="top" lineheight="25px" font-style="" opacity="1" y="379.70000000000005" transform="rotate(0)"><tspan id="SvgjsTspan1827" dy="25" x="924"><tspan id="SvgjsTspan1828" style="text-decoration:;">假</tspan></tspan></text></g><g id="SvgjsG1829"><path id="SvgjsPath1830" d="M1004 525L1004 552L720 552L720 576.4 " stroke="#fcfdfe" stroke-width="2" fill="none" marker-end="url(#SvgjsMarker1831)"></path></g><g id="SvgjsG1833" transform="translate(25,663)"><path id="SvgjsPath1834" d="M0 0L120 0L120 40L0 40Z " stroke="none" fill="none"></path><g id="SvgjsG1835"><text id="SvgjsText1836" font-family="微软雅黑" text-anchor="middle" font-size="32px" width="120px" fill="#fcfdfe" font-weight="400" align="middle" lineheight="125%" font-style="" opacity="1" y="-8" transform="rotate(0)"><tspan id="SvgjsTspan1837" dy="40" x="60"><tspan id="SvgjsTspan1838" style="text-decoration:;">if</tspan></tspan></text></g></g><g id="SvgjsG1839" transform="translate(324,663)"><path id="SvgjsPath1840" d="M0 0L120 0L120 40L0 40Z " stroke="none" fill="none"></path><g id="SvgjsG1841"><text id="SvgjsText1842" font-family="微软雅黑" text-anchor="middle" font-size="32px" width="120px" fill="#fcfdfe" font-weight="400" align="middle" lineheight="125%" font-style="" opacity="1" y="-8" transform="rotate(0)"><tspan id="SvgjsTspan1843" dy="40" x="60"><tspan id="SvgjsTspan1844" style="text-decoration:;">if-else</tspan></tspan></text></g></g><g id="SvgjsG1845" transform="translate(636.5,666)"><path id="SvgjsPath1846" d="M0 0L167 0L167 34L0 34Z " stroke="none" fill="none"></path><g id="SvgjsG1847"><text id="SvgjsText1848" font-family="微软雅黑" text-anchor="middle" font-size="32px" width="167px" fill="#fcfdfe" font-weight="400" align="middle" lineheight="125%" font-style="" opacity="1" y="-11" transform="rotate(0)"><tspan id="SvgjsTspan1849" dy="40" x="83.5"><tspan id="SvgjsTspan1850" style="text-decoration:;">if-elif-else</tspan></tspan></text></g></g></svg>